# xmcd
#
# Track frame offsets:
#	225
#	20849
#	46193
#	63062
#	80630
#	103621
#	121964
#	141038
#	167189
#	184060
#	200708
#	225898
#
# Disc length: 3330 seconds
#
# Revision: 0
# Processed by: cddbd v1.5.2PL0 Copyright (c) Steve Scherf et al.
# Submitted via: EasyCDDAExtractor 10.0.2.1
#
DISCID=9d0cff0c
DTITLE=Various Artist - Musiche Dal Mondo - Africa
DYEAR=1999
DGENRE=Ethnic
TTITLE0=Mara - Geoffrey Oryema
TTITLE1=Rubin, Sephora Et Ruth - Papa Wemba
TTITLE2=Namoni Pasi Mingi - Wendo Kolosoy
TTITLE3=Jose Mukeba - Lutumba Simaro
TTITLE4=Stoptime - Ray Lema Ft Lokua Kanza
TTITLE5=Attentat - Koffi Olomide
TTITLE6=Ndoko Lina - Blaise Bula
TTITLE7=Disaster - Thomas Mapfumo and The Blacks Unlimited
TTITLE8=Mimox - Centrafrican Jazz
TTITLE9=Dangai - Ndai Ndai
TTITLE10=Musanyepere - Thomas Mapfumo and The Blacks Unlimited
TTITLE11=Sogokuru - Ben Ngabo
EXTD=
EXTT0=
EXTT1=
EXTT2=
EXTT3=
EXTT4=
EXTT5=
EXTT6=
EXTT7=
EXTT8=
EXTT9=
EXTT10=
EXTT11=
PLAYORDER=
